<svg width="32" height="32" viewBox="0 0 32 32" fill="none" xmlns="http://www.w3.org/2000/svg">
<path d="M16.0005 4.00019C16.2657 4.00019 16.5201 4.10559 16.7076 4.29309C16.8952 4.48059 17.0005 4.73499 17.0005 5.00019L17.0006 24.5864L24.293 17.2927C24.3859 17.1998 24.4963 17.1261 24.6176 17.0758C24.739 17.0255 24.8692 16.9997 25.0006 16.9997C25.132 16.9997 25.2621 17.0255 25.3835 17.0758C25.5049 17.1261 25.6152 17.1998 25.7081 17.2927C25.801 17.3856 25.8747 17.4959 25.925 17.6173C25.9753 17.7387 26.0012 17.8688 26.0012 18.0002C26.0012 18.1316 25.9753 18.2617 25.925 18.3831C25.8747 18.5045 25.801 18.6148 25.7081 18.7077L16.7081 27.7077C16.6152 27.8007 16.5049 27.8744 16.3835 27.9248C16.2621 27.9751 16.132 28.001 16.0006 28.001C15.8692 28.001 15.7391 27.9751 15.6177 27.9248C15.4963 27.8744 15.386 27.8007 15.2931 27.7077L6.29306 18.7077C6.10542 18.5201 6 18.2656 6 18.0002C6 17.7348 6.10542 17.4803 6.29306 17.2927C6.4807 17.1051 6.73519 16.9997 7.00056 16.9997C7.26592 16.9997 7.52042 17.1051 7.70806 17.2927L15.0006 24.5864L15.0005 5.00019C15.0005 4.73499 15.1059 4.48059 15.2934 4.29309C15.4809 4.10559 15.7353 4.00019 16.0005 4.00019Z" fill="black"/>
</svg>
