<svg width="32" height="32" viewBox="0 0 32 32" fill="none" xmlns="http://www.w3.org/2000/svg">
<path d="M16.0005 27.9998C16.2657 27.9998 16.5201 27.8944 16.7076 27.7069C16.8952 27.5194 17.0005 27.265 17.0005 26.9998L17.0006 7.41355L24.293 14.7072C24.3859 14.8001 24.4963 14.8738 24.6176 14.9241C24.739 14.9744 24.8692 15.0002 25.0006 15.0002C25.132 15.0002 25.2621 14.9744 25.3835 14.9241C25.5049 14.8738 25.6152 14.8001 25.7081 14.7072C25.801 14.6143 25.8747 14.504 25.925 14.3826C25.9753 14.2612 26.0012 14.1311 26.0012 13.9997C26.0012 13.8683 25.9753 13.7382 25.925 13.6168C25.8747 13.4954 25.801 13.3851 25.7081 13.2922L16.7081 4.29224C16.6152 4.19924 16.5049 4.12555 16.3835 4.07515C16.2621 4.02485 16.132 3.99895 16.0006 3.99895C15.8692 3.99895 15.7391 4.02485 15.6177 4.07515C15.4963 4.12555 15.386 4.19924 15.2931 4.29224L6.29306 13.2922C6.10542 13.4798 6 13.7343 6 13.9997C6 14.2651 6.10542 14.5196 6.29306 14.7072C6.4807 14.8948 6.73519 15.0002 7.00056 15.0002C7.26592 15.0002 7.52042 14.8948 7.70806 14.7072L15.0006 7.41355L15.0005 26.9998C15.0005 27.265 15.1059 27.5194 15.2934 27.7069C15.4809 27.8944 15.7353 27.9998 16.0005 27.9998Z" fill="black"/>
</svg>
