<svg width="32" height="32" viewBox="0 0 32 32" fill="none" xmlns="http://www.w3.org/2000/svg">
<path d="M2.66797 9.33325L13.5545 16.9538C14.4361 17.5709 14.8769 17.8795 15.3563 17.999C15.7798 18.1046 16.2228 18.1046 16.6463 17.999C17.1257 17.8795 17.5665 17.5709 18.4481 16.9538L29.3346 9.33325M9.06797 26.6666H22.9346C25.1748 26.6666 26.2949 26.6666 27.1506 26.2306C27.9032 25.8471 28.5152 25.2352 28.8987 24.4825C29.3346 23.6269 29.3346 22.5068 29.3346 20.2666V11.7333C29.3346 9.49304 29.3346 8.37294 28.8987 7.51729C28.5152 6.76464 27.9032 6.15272 27.1506 5.76923C26.2949 5.33325 25.1748 5.33325 22.9346 5.33325H9.06797C6.82776 5.33325 5.70765 5.33325 4.85201 5.76923C4.09936 6.15272 3.48744 6.76464 3.10394 7.51729C2.66797 8.37294 2.66797 9.49304 2.66797 11.7333V20.2666C2.66797 22.5068 2.66797 23.6269 3.10394 24.4825C3.48744 25.2352 4.09936 25.8471 4.85201 26.2306C5.70765 26.6666 6.82776 26.6666 9.06797 26.6666Z" stroke="black" stroke-width="2" stroke-linecap="round" stroke-linejoin="round"/>
</svg>
