<svg width="32" height="32" viewBox="0 0 32 32" fill="none" xmlns="http://www.w3.org/2000/svg">
<path d="M29.3161 13.8554L17.6494 2.65555C17.2118 2.2358 16.6186 2 16 2C15.3814 2 14.7882 2.2358 14.3507 2.65555L2.68397 13.8554C2.46625 14.0629 2.29366 14.3098 2.17624 14.5819C2.05883 14.854 1.99892 15.1457 2.00001 15.4402V28.88C2.00001 29.177 2.12293 29.462 2.34172 29.672C2.56052 29.8821 2.85726 30 3.16668 30H12.5C12.8094 30 13.1062 29.8821 13.325 29.672C13.5438 29.462 13.6667 29.177 13.6667 28.88V21.0401H18.3333V28.88C18.3333 29.177 18.4563 29.462 18.675 29.672C18.8938 29.8821 19.1906 30 19.5 30H28.8333C29.1427 30 29.4395 29.8821 29.6583 29.672C29.8771 29.462 30 29.177 30 28.88V15.4402C30.001 15.1457 29.9412 14.854 29.8238 14.5819C29.7063 14.3098 29.5338 14.0629 29.3161 13.8554ZM27.6667 27.76H20.6667V19.9201C20.6667 19.6231 20.5438 19.3383 20.3249 19.1282C20.1062 18.9182 19.8094 18.8001 19.5 18.8001H12.5C12.1906 18.8001 11.8938 18.9182 11.6751 19.1282C11.4563 19.3383 11.3333 19.6231 11.3333 19.9201V27.76H4.33334V15.4402L16 4.24033L27.6667 15.4402V27.76Z" fill="black"/>
</svg>
