<svg width="32" height="32" viewBox="0 0 32 32" fill="none" xmlns="http://www.w3.org/2000/svg">
<path d="M25.5115 14.4681L17.1782 6.46825C16.8656 6.16843 16.4418 6 16 6C15.5582 6 15.1344 6.16843 14.8219 6.46825L6.48855 14.4681C6.33304 14.6164 6.20976 14.7927 6.12589 14.9871C6.04202 15.1814 5.99923 15.3898 6.00001 15.6001V25.2C6.00001 25.4122 6.08781 25.6157 6.24409 25.7657C6.40037 25.9158 6.61233 26 6.83334 26H13.5C13.721 26 13.933 25.9158 14.0893 25.7657C14.2455 25.6157 14.3333 25.4122 14.3333 25.2V19.6001H17.6667V25.2C17.6667 25.4122 17.7545 25.6157 17.9107 25.7657C18.067 25.9158 18.279 26 18.5 26H25.1667C25.3877 26 25.5997 25.9158 25.7559 25.7657C25.9122 25.6157 26 25.4122 26 25.2V15.6001C26.0007 15.3898 25.958 15.1814 25.8742 14.9871C25.7902 14.7927 25.667 14.6164 25.5115 14.4681ZM24.3333 24.4H19.3333V18.8001C19.3333 18.5879 19.2456 18.3845 19.0892 18.2344C18.933 18.0844 18.721 18.0001 18.5 18.0001H13.5C13.279 18.0001 13.067 18.0844 12.9108 18.2344C12.7545 18.3845 12.6667 18.5879 12.6667 18.8001V24.4H7.66667V15.6001L16 7.60024L24.3333 15.6001V24.4Z" fill="black"/>
<rect x="24.3516" y="20" width="1.65" height="1" fill="#D9D9D9"/>
</svg>
