<svg id="Chemical-Lab--Streamline-Atlas" xmlns="http://www.w3.org/2000/svg" viewBox="-0.5 -0.5 16 16" height="16" width="16">
  <desc>
    Chemical Lab Streamline Icon: https://streamlinehq.com
  </desc>
  <defs></defs>
  <path d="m4.518750000000001 0.9375 5.9624999999999995 0" fill="none" stroke="currentColor" stroke-miterlimit="10" stroke-width="1"></path>
  <path d="M9.2875 3.9187499999999997V0.9375H5.7125v2.9812499999999997L1.6875 11.96875a1.4375 1.4375 0 0 0 -0.15625 0.625 1.45 1.45 0 0 0 1.45 1.46875h9.037500000000001a1.45 1.45 0 0 0 1.45 -1.45 1.4375 1.4375 0 0 0 -0.15625 -0.625Z" fill="none" stroke="currentColor" stroke-miterlimit="10" stroke-width="1"></path>
  <path d="M4.3062499999999995 6.725c3.125 -1.35625 3.3187499999999996 1.1875 6.5125 0.25625" fill="none" stroke="currentColor" stroke-miterlimit="10" stroke-width="1"></path>
  <path d="m4.518750000000001 11.675 1.1937499999999999 0" fill="none" stroke="currentColor" stroke-miterlimit="10" stroke-width="1"></path>
  <path d="m6.30625 9.2875 1.1937499999999999 0" fill="none" stroke="currentColor" stroke-miterlimit="10" stroke-width="1"></path>
  <path d="m9.2875 10.48125 1.1937499999999999 0" fill="none" stroke="currentColor" stroke-miterlimit="10" stroke-width="1"></path>
</svg>