<svg width="32" height="32" viewBox="0 0 32 32" fill="none" xmlns="http://www.w3.org/2000/svg">
<g clip-path="url(#clip0_482_2711)">
<path d="M13.5028 5.4136C13.0443 7.37083 12.9819 9.39997 13.3193 11.3817C13.6567 13.3634 14.3869 15.2576 15.4672 16.9529C16.5474 18.6481 17.9558 20.1103 19.6094 21.2532C21.2631 22.3962 23.1286 23.1969 25.0963 23.6082C24.0617 24.6784 22.8227 25.5299 21.4528 26.1121C20.0828 26.6943 18.6099 26.9954 17.1214 26.9975C16.9829 26.9975 16.8432 27.0026 16.7036 26.9975C14.1122 26.9058 11.6349 25.9094 9.70174 24.1812C7.76861 22.4531 6.50186 20.1024 6.1215 17.5375C5.74113 14.9726 6.27118 12.3555 7.61958 10.1407C8.96799 7.9259 11.0496 6.25338 13.5028 5.4136ZM14.9803 3C14.9217 3.00009 14.8633 3.00531 14.8057 3.0156C11.6214 3.58119 8.75908 5.30502 6.76995 7.85505C4.78083 10.4051 3.80563 13.601 4.03219 16.8271C4.25875 20.0532 5.67105 23.0814 7.99705 25.3284C10.323 27.5754 13.3982 28.8823 16.6303 28.9973C16.7944 29.0033 16.9585 28.9973 17.1212 28.9973C19.22 28.9984 21.2882 28.4941 23.151 27.5271C25.0138 26.5601 26.6163 25.1588 27.8232 23.4417C27.921 23.2937 27.9781 23.1226 27.9887 22.9455C27.9994 22.7684 27.9632 22.5917 27.8837 22.4331C27.8043 22.2744 27.6845 22.1396 27.5364 22.042C27.3882 21.9444 27.217 21.8876 27.0399 21.8773C25.0421 21.702 23.1113 21.0697 21.3968 20.0293C19.6824 18.9888 18.2301 17.568 17.1523 15.8767C16.0746 14.1855 15.4001 12.269 15.1811 10.2755C14.9622 8.28204 15.2045 6.26489 15.8895 4.38C15.9477 4.22919 15.9691 4.06665 15.9519 3.9059C15.9346 3.74515 15.8792 3.59085 15.7903 3.45584C15.7013 3.32084 15.5814 3.20903 15.4405 3.12974C15.2996 3.05045 15.1418 3.00597 14.9803 3Z" fill="black"/>
</g>
<defs>
<clipPath id="clip0_482_2711">
<rect width="32" height="32" fill="white"/>
</clipPath>
</defs>
</svg>
