<svg width="32" height="32" viewBox="0 0 32 32" fill="none" xmlns="http://www.w3.org/2000/svg">
<path d="M26.8256 12.667C26.8254 13.1225 26.4559 13.4912 26.0004 13.4912C25.5449 13.4912 25.1754 13.1225 25.1752 12.667V7.99121L16.5834 16.583C16.2613 16.9052 15.7396 16.9052 15.4174 16.583C15.0952 16.2608 15.0952 15.7392 15.4174 15.417L24.0092 6.8252H19.3334C18.878 6.825 18.5092 6.45552 18.5092 6C18.5092 5.54448 18.878 5.175 19.3334 5.1748H26.0004C26.4561 5.1748 26.8256 5.54437 26.8256 6V12.667Z" fill="black"/>
<path d="M5.17578 23.7773V8.22266C5.17578 6.53971 6.54068 5.1748 8.22363 5.1748H14.8896C15.3453 5.1748 15.7148 5.54437 15.7148 6C15.7148 6.45563 15.3453 6.8252 14.8896 6.8252H8.22363C7.45195 6.8252 6.82617 7.45098 6.82617 8.22266V23.7773C6.82617 24.549 7.45195 25.1748 8.22363 25.1748H23.7783C24.55 25.1748 25.1758 24.549 25.1758 23.7773V17.1113C25.1758 16.6557 25.5453 16.2861 26.001 16.2861C26.4566 16.2861 26.8262 16.6557 26.8262 17.1113V23.7773C26.8262 25.4603 25.4613 26.8252 23.7783 26.8252H8.22363C6.54068 26.8252 5.17578 25.4603 5.17578 23.7773Z" fill="black"/>
</svg>
