<svg width="32" height="32" viewBox="0 0 32 32" fill="none" xmlns="http://www.w3.org/2000/svg">
<path d="M29 14C28.9977 16.121 28.1541 18.1545 26.6543 19.6543C25.1545 21.1541 23.121 21.9977 21 22H6.41374L10.7075 26.2925C10.8951 26.4801 11.0005 26.7346 11.0005 27C11.0005 27.2654 10.8951 27.5199 10.7075 27.7075C10.5199 27.8951 10.2654 28.0006 9.99999 28.0006C9.73463 28.0006 9.48013 27.8951 9.29249 27.7075L3.29249 21.7075C3.19952 21.6146 3.12576 21.5043 3.07543 21.3829C3.02511 21.2615 2.99921 21.1314 2.99921 21C2.99921 20.8686 3.02511 20.7385 3.07543 20.6171C3.12576 20.4957 3.19952 20.3854 3.29249 20.2925L9.29249 14.2925C9.48013 14.1049 9.73463 13.9994 9.99999 13.9994C10.2654 13.9994 10.5199 14.1049 10.7075 14.2925C10.8951 14.4801 11.0005 14.7346 11.0005 15C11.0005 15.2654 10.8951 15.5199 10.7075 15.7075L6.41374 20H21C22.5913 20 24.1174 19.3679 25.2426 18.2426C26.3679 17.1174 27 15.5913 27 14C27 12.4087 26.3679 10.8826 25.2426 9.75736C24.1174 8.63214 22.5913 8 21 8H9.99999C9.73478 8 9.48042 7.89464 9.29289 7.70711C9.10535 7.51957 8.99999 7.26522 8.99999 7C8.99999 6.73478 9.10535 6.48043 9.29289 6.29289C9.48042 6.10536 9.73478 6 9.99999 6H21C23.121 6.00232 25.1545 6.84591 26.6543 8.3457C28.1541 9.84549 28.9977 11.879 29 14Z" fill="white"/>
</svg>
