<svg width="32" height="32" viewBox="0 0 32 32" fill="none" xmlns="http://www.w3.org/2000/svg">
<path d="M25 16C25 13.6131 24.0521 11.3236 22.3643 9.63574C20.6764 7.94791 18.3869 7 16 7C13.6131 7 11.3236 7.94791 9.63574 9.63574C7.94791 11.3236 7 13.6131 7 16C7 18.3869 7.94791 20.6764 9.63574 22.3643C11.3236 24.0521 13.6131 25 16 25C18.3869 25 20.6764 24.0521 22.3643 22.3643C24.0521 20.6764 25 18.3869 25 16ZM27 16C27 18.9174 25.8412 21.7154 23.7783 23.7783C21.7154 25.8412 18.9174 27 16 27C13.0826 27 10.2846 25.8412 8.22168 23.7783C6.15878 21.7154 5 18.9174 5 16C5 13.0826 6.15878 10.2846 8.22168 8.22168C10.2846 6.15878 13.0826 5 16 5C18.9174 5 21.7154 6.15878 23.7783 8.22168C25.8412 10.2846 27 13.0826 27 16Z" fill="black"/>
<path d="M15.0001 9.99997C15.0001 9.4477 15.4478 9 16.0001 9C16.5523 9 17 9.4477 17 9.99997V15.9998C17 16.3785 16.7861 16.7249 16.4473 16.8943L12.4475 18.8942C11.9536 19.1412 11.3528 18.9409 11.1058 18.447C10.8588 17.953 11.0591 17.3522 11.553 17.1052L15.0001 15.3816V9.99997Z" fill="black"/>
</svg>
