<svg width="32" height="32" viewBox="0 0 32 32" fill="none" xmlns="http://www.w3.org/2000/svg">
<path d="M5.33467 29.09C6.1381 29.3334 7.22329 29.3334 9.06797 29.3334H22.9346C24.7793 29.3334 25.8645 29.3334 26.6679 29.09M5.33467 29.09C5.1624 29.0378 5.00308 28.9744 4.85201 28.8974C4.09936 28.5139 3.48744 27.902 3.10394 27.1494C2.66797 26.2937 2.66797 25.1736 2.66797 22.9334V9.06675C2.66797 6.82654 2.66797 5.70643 3.10394 4.85079C3.48744 4.09814 4.09936 3.48622 4.85201 3.10272C5.70765 2.66675 6.82776 2.66675 9.06797 2.66675H22.9346C25.1748 2.66675 26.2949 2.66675 27.1506 3.10272C27.9032 3.48622 28.5152 4.09814 28.8987 4.85079C29.3346 5.70643 29.3346 6.82654 29.3346 9.06675V22.9334C29.3346 25.1736 29.3346 26.2937 28.8987 27.1494C28.5152 27.902 27.9032 28.5139 27.1506 28.8974C26.9995 28.9744 26.8402 29.0378 26.6679 29.09M5.33467 29.09C5.33511 28.0109 5.34158 27.4399 5.43711 26.9596C5.85795 24.8439 7.5118 23.1901 9.62749 22.7692C10.1427 22.6667 10.7622 22.6667 12.0013 22.6667H20.0013C21.2404 22.6667 21.8599 22.6667 22.3751 22.7692C24.4908 23.1901 26.1447 24.8439 26.5655 26.9596C26.661 27.4399 26.6675 28.0109 26.6679 29.09M21.3346 12.6667C21.3346 15.6123 18.9468 18.0001 16.0013 18.0001C13.0558 18.0001 10.668 15.6123 10.668 12.6667C10.668 9.72123 13.0558 7.33341 16.0013 7.33341C18.9468 7.33341 21.3346 9.72123 21.3346 12.6667Z" stroke="black" stroke-width="2" stroke-linecap="round" stroke-linejoin="round"/>
</svg>
