<svg width="32" height="32" viewBox="0 0 32 32" fill="none" xmlns="http://www.w3.org/2000/svg">
<path d="M20.4255 10.688C19.9491 10.2116 19.7109 9.97346 19.6217 9.69881C19.5432 9.45723 19.5432 9.197 19.6217 8.95541C19.7109 8.68077 19.9491 8.4426 20.4255 7.96625L23.8396 4.55212C22.9336 4.14239 21.9279 3.91431 20.8689 3.91431C16.883 3.91431 13.6518 7.1455 13.6518 11.1314C13.6518 11.722 13.7227 12.2961 13.8566 12.8455C13.9999 13.4339 14.0716 13.7281 14.0589 13.914C14.0455 14.1085 14.0165 14.2121 13.9268 14.3852C13.8411 14.5506 13.6769 14.7148 13.3485 15.0433L5.83329 22.5584C4.83682 23.5549 4.83682 25.1705 5.83329 26.167C6.82976 27.1634 8.44536 27.1634 9.44183 26.167L16.957 18.6518C17.2854 18.3234 17.4496 18.1592 17.615 18.0734C17.7882 17.9837 17.8917 17.9547 18.0863 17.9414C18.2721 17.9287 18.5663 18.0003 19.1547 18.1437C19.7041 18.2775 20.2782 18.3485 20.8689 18.3485C24.8547 18.3485 28.0859 15.1173 28.0859 11.1314C28.0859 10.0724 27.8578 9.06666 27.4481 8.16066L24.034 11.5748C23.5576 12.0511 23.3195 12.2893 23.0448 12.3785C22.8032 12.457 22.543 12.457 22.3014 12.3785C22.0268 12.2893 21.7886 12.0511 21.3123 11.5748L20.4255 10.688Z" stroke="black" stroke-width="2" stroke-linecap="round" stroke-linejoin="round"/>
</svg>
